<svg width="90" height="78" viewBox="0 0 90 78" fill="none" xmlns="http://www.w3.org/2000/svg">
<g filter="url(#filter0_d_20_1284)">
<g filter="url(#filter1_d_20_1284)">
<path d="M42.2061 48.0646C42.1646 48.1304 42.1271 48.2 42.0936 48.2733C42.0691 48.3533 42.0495 48.4361 42.0348 48.5218C42.0306 48.6121 42.0319 48.7041 42.0388 48.7978C42.0574 48.8939 42.0819 48.9904 42.1124 49.0873C42.1552 49.184 42.2041 49.2799 42.2592 49.3749C42.3266 49.4669 42.4001 49.5567 42.4797 49.6444C42.5711 49.7263 42.6683 49.8047 42.7711 49.8796C42.8848 49.9461 43.0035 50.0079 43.1273 50.0648C43.2604 50.111 43.3977 50.1513 43.5391 50.1857C43.6878 50.2072 43.8395 50.2218 43.9943 50.2294C44.1539 50.2225 44.3153 50.208 44.4783 50.1857C44.6434 50.1476 44.8086 50.1014 44.9742 50.047C45.1386 49.976 45.3017 49.8967 45.4635 49.809C45.6209 49.7046 45.7753 49.5918 45.9268 49.4708C46.0707 49.3336 46.2099 49.1885 46.3445 49.0355C46.4682 48.8673 46.5858 48.692 46.6971 48.5095C46.7946 48.3137 46.8843 48.1116 46.9665 47.9035C47.0319 47.6842 47.0884 47.4601 47.136 47.2311C47.1645 46.9939 47.1831 46.7533 47.1916 46.5095C47.1793 46.2607 47.1562 46.0104 47.1223 45.7586C47.0663 45.5055 46.999 45.2527 46.9205 45.0003C46.8193 44.7507 46.7066 44.5034 46.5826 44.2585C46.4359 44.0204 46.2781 43.7867 46.1091 43.5575C45.9184 43.3393 45.7171 43.1275 45.5052 42.9222C45.2732 42.7318 45.0316 42.5499 44.7804 42.3764C44.5113 42.2216 44.234 42.077 43.9484 41.9426C43.648 41.8304 43.341 41.7299 43.0274 41.6413C42.7025 41.5777 42.3731 41.5271 42.039 41.4897C41.6977 41.4795 41.3541 41.4834 41.008 41.5013C40.6595 41.5481 40.3109 41.6096 39.9622 41.6857C39.6159 41.7915 39.2721 41.9121 38.9308 42.0475C38.5969 42.2126 38.2681 42.3922 37.9443 42.5864C37.6331 42.8093 37.3294 43.046 37.0333 43.2967C36.7548 43.5742 36.4863 43.8645 36.2277 44.1675C35.9915 44.4947 35.7675 44.8331 35.5557 45.1827C35.3706 45.553 35.1997 45.9325 35.043 46.3212C34.9167 46.7263 34.8063 47.1384 34.7119 47.5575C34.6508 47.9879 34.6069 48.4227 34.5803 48.8618C34.5892 49.3069 34.6162 49.7535 34.6614 50.2016C34.7433 50.6498 34.8438 51.0964 34.9629 51.5416C35.119 51.9807 35.2936 52.4152 35.4866 52.8451C35.7159 53.2627 35.9631 53.6726 36.228 54.0749C36.5276 54.4587 36.8438 54.8318 37.1766 55.1943C37.5413 55.5325 37.9209 55.8571 38.3156 56.1683C38.7382 56.4497 39.1736 56.7151 39.622 56.9644C40.0936 57.1792 40.5754 57.3758 41.0676 57.554C41.5775 57.6937 42.0947 57.8133 42.6192 57.9129C43.1552 57.9707 43.6953 58.0072 44.2394 58.0223C44.7882 57.9936 45.3376 57.9427 45.8876 57.8696C46.4351 57.7518 46.9795 57.6116 47.5209 57.449C48.0525 57.2418 48.5773 57.0127 49.0954 56.7616C49.5963 56.4673 50.0869 56.1521 50.567 55.8158C51.023 55.4391 51.465 55.043 51.8933 54.6275C52.2905 54.1753 52.6707 53.7059 53.0338 53.2193C53.3599 52.7009 53.666 52.1681 53.9522 51.6208C54.196 51.0477 54.4174 50.4632 54.6166 49.8675C54.7689 49.2528 54.8971 48.6304 55.0009 48.0004C55.0548 47.3588 55.0832 46.7135 55.086 46.0645C55.0368 45.412 54.9613 44.76 54.8596 44.1083C54.7053 43.4617 54.5247 42.8198 54.3179 42.1825C54.0591 41.5588 53.7748 40.944 53.4649 40.3382C53.1052 39.7544 52.7213 39.1836 52.3132 38.626C51.8588 38.0985 51.3823 37.588 50.8837 37.0946C50.3436 36.6389 49.784 36.2038 49.2052 35.7893C48.5907 35.4193 47.9603 35.0732 47.3137 34.7507C46.6388 34.4787 45.9517 34.233 45.2523 34.0137C44.5326 33.8494 43.805 33.7134 43.0693 33.6059C42.3222 33.5567 41.5718 33.5372 40.8179 33.5474C40.062 33.6178 39.3075 33.7185 38.5543 33.8495C37.8089 34.0411 37.0697 34.2627 36.3368 34.5144C35.6213 34.8255 34.9169 35.1656 34.2237 35.5348C33.5574 35.9606 32.907 36.4137 32.2724 36.8941C31.6739 37.4267 31.0956 37.9841 30.5375 38.5662C30.0239 39.1947 29.5345 39.8447 29.0693 40.5163C28.656 41.2271 28.2705 41.9555 27.9125 42.7015C27.6128 43.4784 27.3436 44.2684 27.1048 45.0716C26.9293 45.8963 26.7863 46.7293 26.6759 47.5705C26.6321 48.4231 26.6221 49.2787 26.6461 50.1373C26.7384 50.9966 26.8651 51.8534 27.026 52.7078C27.2555 53.5519 27.5188 54.3881 27.816 55.2163C28.18 56.0232 28.5766 56.8168 29.0058 57.597C29.4982 58.3452 30.021 59.0749 30.5742 59.786C31.1855 60.455 31.8242 61.1006 32.4903 61.7228C33.2076 62.2937 33.9486 62.8367 34.7131 63.352C35.5206 63.8079 36.3472 64.2322 37.1929 64.625C38.0719 64.9516 38.9651 65.2437 39.8722 65.5012C40.8021 65.6872 41.7404 65.8366 42.6873 65.9492C43.6453 65.9869 44.606 65.9865 45.5692 65.9482C46.5317 65.8332 47.4907 65.6799 48.4462 65.4882C49.3886 65.2202 50.3215 64.9145 51.2447 64.5711C52.1427 64.1536 53.0251 63.6999 53.8919 63.2102C54.7217 62.6506 55.5301 62.0575 56.3172 61.4309C57.0562 60.7404 57.7686 60.0199 58.4543 59.2694C59.0818 58.4629 59.6779 57.6307 60.2427 56.7728C60.7405 55.8684 61.2029 54.9433 61.6299 53.9976C61.9827 53.0162 62.2968 52.0199 62.5724 51.0086C62.7683 49.9736 62.9232 48.9298 63.0373 47.8773C63.0682 46.8138 63.0568 45.7482 63.0033 44.6803C62.865 43.6148 62.6843 42.5539 62.4613 41.4975C62.154 40.4569 61.8053 39.4277 61.415 38.4097C60.9433 37.421 60.4321 36.4501 59.8812 35.4972C59.2539 34.5863 58.5899 33.6996 57.8893 32.837" stroke="#E9E9E9" stroke-width="3.67632"/>
<line x1="21.1364" y1="30.1423" x2="21.1364" y2="66.4197" stroke="#E9E9E9" stroke-width="3.72398" stroke-linecap="round"/>
<path d="M68.4414 30.46L68.8367 66.315" stroke="#E9E9E9" stroke-width="3.82251" stroke-linecap="round"/>
</g>
<line x1="63.9364" y1="17.0697" x2="63.9364" y2="24.7016" stroke="#E9E9E9" stroke-width="1.78384" stroke-linecap="round"/>
<path d="M71.25 17.0859H64.803" stroke="#E9E9E9" stroke-width="1.80968" stroke-linecap="square"/>
<line x1="72.0443" y1="17.0697" x2="72.0443" y2="31.5863" stroke="#E9E9E9" stroke-width="1.78384" stroke-linecap="round"/>
<path d="M46.0083 10.8431L44.619 9.82846L42.5897 12.607L43.979 13.6217L46.0083 10.8431ZM76.999 37.7382C77.7663 38.2985 78.8426 38.1308 79.403 37.3635C79.9634 36.5963 79.7957 35.52 79.0284 34.9596L76.999 37.7382ZM43.979 13.6217L76.999 37.7382L79.0284 34.9596L46.0083 10.8431L43.979 13.6217Z" fill="#E9E9E9"/>
<path d="M45.3611 13.7668L46.7783 12.7245L44.6938 9.89017L43.2766 10.9324L45.3611 13.7668ZM10.6511 34.9268C9.86836 35.5025 9.70051 36.6036 10.2761 37.3863C10.8518 38.169 11.9529 38.3368 12.7356 37.7612L10.6511 34.9268ZM43.2766 10.9324L10.6511 34.9268L12.7356 37.7612L45.3611 13.7668L43.2766 10.9324Z" fill="#E9E9E9"/>
</g>
<defs>
<filter id="filter0_d_20_1284" x="0.697198" y="0.553539" width="88.6511" height="77.3039" filterUnits="userSpaceOnUse" color-interpolation-filters="sRGB">
<feFlood flood-opacity="0" result="BackgroundImageFix"/>
<feColorMatrix in="SourceAlpha" type="matrix" values="0 0 0 0 0 0 0 0 0 0 0 0 0 0 0 0 0 0 127 0" result="hardAlpha"/>
<feOffset dx="0.188508" dy="0.150806"/>
<feGaussianBlur stdDeviation="4.7127"/>
<feColorMatrix type="matrix" values="0 0 0 0 1 0 0 0 0 1 0 0 0 0 1 0 0 0 0.25 0"/>
<feBlend mode="screen" in2="BackgroundImageFix" result="effect1_dropShadow_20_1284"/>
<feBlend mode="normal" in="SourceGraphic" in2="effect1_dropShadow_20_1284" result="shape"/>
</filter>
<filter id="filter1_d_20_1284" x="19.1236" y="28.2803" width="51.7752" height="40.3026" filterUnits="userSpaceOnUse" color-interpolation-filters="sRGB">
<feFlood flood-opacity="0" result="BackgroundImageFix"/>
<feColorMatrix in="SourceAlpha" type="matrix" values="0 0 0 0 0 0 0 0 0 0 0 0 0 0 0 0 0 0 127 0" result="hardAlpha"/>
<feOffset dy="0.150806"/>
<feGaussianBlur stdDeviation="0.0754032"/>
<feComposite in2="hardAlpha" operator="out"/>
<feColorMatrix type="matrix" values="0 0 0 0 0 0 0 0 0 0 0 0 0 0 0 0 0 0 0.25 0"/>
<feBlend mode="normal" in2="BackgroundImageFix" result="effect1_dropShadow_20_1284"/>
<feBlend mode="normal" in="SourceGraphic" in2="effect1_dropShadow_20_1284" result="shape"/>
</filter>
</defs>
</svg>
