<svg width="45" height="40" viewBox="0 0 45 40" fill="none" xmlns="http://www.w3.org/2000/svg">
<g filter="url(#filter0_d_20_1284)">
<g filter="url(#filter1_d_20_1284)">
<path d="M20.9898 24.8845C20.9689 24.9176 20.9501 24.9525 20.9332 24.9894C20.9209 25.0296 20.9111 25.0713 20.9036 25.1144C20.9015 25.1598 20.9022 25.2061 20.9057 25.2532C20.915 25.3015 20.9274 25.3501 20.9427 25.3989C20.9642 25.4475 20.9888 25.4957 21.0165 25.5435C21.0505 25.5898 21.0874 25.6349 21.1274 25.679C21.1734 25.7202 21.2223 25.7597 21.274 25.7973C21.3312 25.8308 21.3909 25.8618 21.4531 25.8905C21.5201 25.9137 21.5891 25.934 21.6603 25.9513C21.7351 25.9621 21.8114 25.9694 21.8892 25.9733C21.9695 25.9698 22.0507 25.9625 22.1327 25.9513C22.2157 25.9322 22.2988 25.9089 22.3821 25.8815C22.4648 25.8458 22.5468 25.8059 22.6282 25.7618C22.7074 25.7093 22.785 25.6526 22.8612 25.5917C22.9336 25.5227 23.0036 25.4497 23.0713 25.3728C23.1335 25.2882 23.1926 25.2 23.2486 25.1082C23.2977 25.0097 23.3428 24.9081 23.3841 24.8034C23.417 24.6931 23.4455 24.5804 23.4694 24.4652C23.4838 24.3459 23.4931 24.2249 23.4974 24.1023C23.4912 23.9772 23.4796 23.8513 23.4625 23.7246C23.4344 23.5973 23.4005 23.4702 23.361 23.3432C23.3101 23.2177 23.2534 23.0933 23.191 22.9701C23.1173 22.8503 23.0379 22.7328 22.9529 22.6175C22.857 22.5078 22.7557 22.4012 22.6492 22.298C22.5325 22.2022 22.4109 22.1107 22.2846 22.0235C22.1493 21.9456 22.0098 21.8729 21.8662 21.8053C21.715 21.7489 21.5606 21.6983 21.4029 21.6537C21.2395 21.6217 21.0738 21.5963 20.9058 21.5775C20.7341 21.5724 20.5613 21.5743 20.3872 21.5833C20.2119 21.6069 20.0366 21.6378 19.8612 21.6761C19.6871 21.7293 19.5141 21.7899 19.3425 21.8581C19.1745 21.9411 19.0091 22.0314 18.8463 22.1291C18.6897 22.2412 18.537 22.3603 18.3881 22.4864C18.248 22.6259 18.1129 22.7719 17.9829 22.9244C17.8641 23.0889 17.7514 23.2591 17.6449 23.435C17.5518 23.6212 17.4658 23.8121 17.387 24.0076C17.3235 24.2114 17.268 24.4186 17.2205 24.6294C17.1897 24.8459 17.1677 25.0646 17.1543 25.2854C17.1588 25.5093 17.1724 25.7339 17.1951 25.9593C17.2363 26.1847 17.2869 26.4094 17.3467 26.6333C17.4253 26.8541 17.513 27.0726 17.6101 27.2889C17.7255 27.4989 17.8498 27.7051 17.9831 27.9074C18.1337 28.1005 18.2928 28.2881 18.4602 28.4704C18.6436 28.6405 18.8345 28.8038 19.033 28.9603C19.2456 29.1019 19.4646 29.2354 19.6901 29.3608C19.9273 29.4688 20.1697 29.5677 20.4172 29.6573C20.6736 29.7276 20.9338 29.7877 21.1976 29.8378C21.4672 29.8669 21.7388 29.8852 22.0125 29.8928C22.2885 29.8784 22.5649 29.8528 22.8415 29.816C23.1169 29.7568 23.3907 29.6863 23.663 29.6045C23.9304 29.5003 24.1943 29.385 24.4549 29.2587C24.7068 29.1107 24.9536 28.9522 25.1951 28.7831C25.4244 28.5936 25.6468 28.3943 25.8621 28.1854C26.0619 27.9579 26.2532 27.7218 26.4358 27.4771C26.5998 27.2164 26.7538 26.9484 26.8977 26.6731C27.0203 26.3848 27.1317 26.0909 27.2319 25.7913C27.3085 25.4821 27.3729 25.169 27.4252 24.8521C27.4523 24.5295 27.4666 24.2049 27.468 23.8785C27.4432 23.5503 27.4053 23.2223 27.3541 22.8946C27.2765 22.5694 27.1857 22.2465 27.0816 21.9259C26.9515 21.6122 26.8085 21.303 26.6526 20.9983C26.4717 20.7047 26.2786 20.4176 26.0734 20.1371C25.8448 19.8718 25.6051 19.6151 25.3544 19.3669C25.0827 19.1377 24.8013 18.9189 24.5101 18.7104C24.2011 18.5243 23.884 18.3502 23.5588 18.188C23.2193 18.0512 22.8737 17.9276 22.5219 17.8173C22.16 17.7347 21.794 17.6663 21.424 17.6122C21.0482 17.5875 20.6708 17.5777 20.2916 17.5828C19.9114 17.6182 19.5319 17.6689 19.1531 17.7347C18.7782 17.8311 18.4064 17.9426 18.0377 18.0692C17.6779 18.2256 17.3236 18.3967 16.9749 18.5824C16.6398 18.7966 16.3127 19.0244 15.9935 19.2661C15.6925 19.5339 15.4016 19.8143 15.1209 20.1071C14.8626 20.4232 14.6164 20.7501 14.3824 21.0879C14.1746 21.4454 13.9807 21.8118 13.8006 22.187C13.6499 22.5777 13.5145 22.9751 13.3944 23.3791C13.3061 23.7939 13.2342 24.2128 13.1786 24.6359C13.1566 25.0648 13.1516 25.4951 13.1636 25.9269C13.2101 26.3591 13.2738 26.7901 13.3548 27.2198C13.4702 27.6444 13.6026 28.0649 13.7521 28.4815C13.9352 28.8874 14.1346 29.2865 14.3505 29.6789C14.5982 30.0553 14.8611 30.4223 15.1394 30.7799C15.4468 31.1164 15.7681 31.4411 16.1031 31.7541C16.4639 32.0412 16.8366 32.3143 17.2211 32.5735C17.6272 32.8028 18.043 33.0162 18.4683 33.2138C18.9105 33.378 19.3597 33.5249 19.816 33.6545C20.2836 33.748 20.7556 33.8232 21.2318 33.8798C21.7137 33.8988 22.1969 33.8986 22.6814 33.8793C23.1654 33.8215 23.6478 33.7443 24.1284 33.6479C24.6024 33.5132 25.0716 33.3594 25.5359 33.1866C25.9876 32.9767 26.4314 32.7485 26.8674 32.5022C27.2847 32.2207 27.6914 31.9224 28.0872 31.6072C28.4589 31.26 28.8172 30.8976 29.1621 30.5201C29.4777 30.1145 29.7776 29.6959 30.0616 29.2644C30.312 28.8095 30.5446 28.3442 30.7593 27.8686C30.9368 27.3749 31.0948 26.8738 31.2334 26.3652C31.3319 25.8446 31.4099 25.3196 31.4672 24.7902C31.4827 24.2554 31.477 23.7194 31.4501 23.1823C31.3806 22.6464 31.2897 22.1127 31.1775 21.5814C31.023 21.058 30.8476 20.5404 30.6513 20.0284C30.414 19.5311 30.1569 19.0428 29.8798 18.5634C29.5643 18.1053 29.2303 17.6593 28.878 17.2255" stroke="#E9E9E9" stroke-width="1.84907"/>
<line x1="10.3926" y1="15.8696" x2="10.3926" y2="34.1159" stroke="#E9E9E9" stroke-width="1.87304" stroke-linecap="round"/>
<path d="M34.1851 16.0298L34.3839 34.0637" stroke="#E9E9E9" stroke-width="1.92259" stroke-linecap="round"/>
</g>
<line x1="31.9193" y1="9.2948" x2="31.9193" y2="13.1334" stroke="#E9E9E9" stroke-width="0.89721" stroke-linecap="round"/>
<path d="M35.5981 9.30322H32.3555" stroke="#E9E9E9" stroke-width="0.910206" stroke-linecap="square"/>
<line x1="35.9974" y1="9.2948" x2="35.9974" y2="16.5962" stroke="#E9E9E9" stroke-width="0.89721" stroke-linecap="round"/>
<path d="M22.9024 6.16354L22.2037 5.65319L21.183 7.05072L21.8817 7.56107L22.9024 6.16354ZM38.4897 19.6908C38.8756 19.9727 39.417 19.8883 39.6988 19.5024C39.9807 19.1165 39.8963 18.5752 39.5104 18.2933L38.4897 19.6908ZM21.8817 7.56107L38.4897 19.6908L39.5104 18.2933L22.9024 6.16354L21.8817 7.56107Z" fill="#E9E9E9"/>
<path d="M22.577 7.63369L23.2898 7.10947L22.2413 5.68388L21.5285 6.2081L22.577 7.63369ZM5.11896 18.2765C4.72529 18.566 4.64087 19.1198 4.93039 19.5135C5.21991 19.9072 5.77374 19.9916 6.16741 19.7021L5.11896 18.2765ZM21.5285 6.2081L5.11896 18.2765L6.16741 19.7021L22.577 7.63369L21.5285 6.2081Z" fill="#E9E9E9"/>
</g>
<defs>
<filter id="filter0_d_20_1284" x="0.112457" y="0.988514" width="44.5882" height="38.8802" filterUnits="userSpaceOnUse" color-interpolation-filters="sRGB">
<feFlood flood-opacity="0" result="BackgroundImageFix"/>
<feColorMatrix in="SourceAlpha" type="matrix" values="0 0 0 0 0 0 0 0 0 0 0 0 0 0 0 0 0 0 127 0" result="hardAlpha"/>
<feOffset dx="0.0948132" dy="0.0758505"/>
<feGaussianBlur stdDeviation="2.37033"/>
<feColorMatrix type="matrix" values="0 0 0 0 1 0 0 0 0 1 0 0 0 0 1 0 0 0 0.25 0"/>
<feBlend mode="screen" in2="BackgroundImageFix" result="effect1_dropShadow_20_1284"/>
<feBlend mode="normal" in="SourceGraphic" in2="effect1_dropShadow_20_1284" result="shape"/>
</filter>
<filter id="filter1_d_20_1284" x="9.3802" y="14.9331" width="26.0409" height="20.2708" filterUnits="userSpaceOnUse" color-interpolation-filters="sRGB">
<feFlood flood-opacity="0" result="BackgroundImageFix"/>
<feColorMatrix in="SourceAlpha" type="matrix" values="0 0 0 0 0 0 0 0 0 0 0 0 0 0 0 0 0 0 127 0" result="hardAlpha"/>
<feOffset dy="0.0758505"/>
<feGaussianBlur stdDeviation="0.0379253"/>
<feComposite in2="hardAlpha" operator="out"/>
<feColorMatrix type="matrix" values="0 0 0 0 0 0 0 0 0 0 0 0 0 0 0 0 0 0 0.25 0"/>
<feBlend mode="normal" in2="BackgroundImageFix" result="effect1_dropShadow_20_1284"/>
<feBlend mode="normal" in="SourceGraphic" in2="effect1_dropShadow_20_1284" result="shape"/>
</filter>
</defs>
</svg>
